<svg xmlns="http://www.w3.org/2000/svg" version="1.1" width="45" height="49" viewBox="0 0 45 49" xml:space="preserve">
  <defs>
  </defs>

	<!-- Rounded Hexagon Background with reduced width -->
	<path d="M 22.5 0 C 23.5 0 24.5 0.3 25.5 1 L 42.5 12.25 C 43.5 12.9 44 13.9 44 14.75 L 44 36.75 C 44 37.6 43.5 38.6 42.5 39.25 L 25.5 48 C 24.5 48.7 23.5 49 22.5 49 C 21.5 49 20.5 48.7 19.5 48 L 2.5 39.25 C 1.5 38.6 1 37.6 1 36.75 L 1 14.75 C 1 13.9 1.5 12.9 2.5 12.25 L 19.5 1 C 20.5 0.3 21.5 0 22.5 0 Z"
		  style="fill: #9260F4;"/>

	<!-- Person Icon (centered and resized to fit) -->
	<g transform="translate(10, 11) scale(0.28)">
    <path d="M 45 40.05 c -9.34 0 -16.939 -7.599 -16.939 -16.939 v -6.171 C 28.061 7.599 35.66 0 45 0 c 9.341 0 16.939 7.599 16.939 16.939 v 6.171 C 61.939 32.451 54.341 40.05 45 40.05 z"
		  style="fill: #EDE4FF;"/>
		<path d="M 69.139 90 H 20.862 c -4.143 0 -7.513 -3.37 -7.513 -7.513 V 67.927 c 0 -11.157 5.701 -21.278 15.25 -27.074 c 0.745 -0.451 1.694 -0.37 2.35 0.2 c 3.91 3.398 8.9 5.27 14.052 5.27 c 5.151 0 10.142 -1.872 14.053 -5.27 c 0.657 -0.57 1.606 -0.65 2.35 -0.2 C 70.95 46.648 76.65 56.77 76.65 67.927 v 14.561 C 76.65 86.63 73.28 90 69.139 90 z"
			  style="fill: #EDE4FF;"/>
  </g>
</svg>
